# Blender v3.1.2 OBJ File: ''
# www.blender.org
o Cube.826_Cube.103
v 0.130183 0.722120 0.469231
v 0.028282 0.750706 0.425625
v -0.127760 0.733536 0.466937
v -0.206125 0.804622 0.393983
v -0.041297 0.772759 0.456299
v -0.187273 0.787654 0.461836
v -0.332597 0.786226 0.465371
v 0.036933 0.494652 0.467044
v -0.193845 0.139732 0.465027
v -0.001041 0.019998 0.444418
v -0.390971 0.029836 0.412311
v -0.269312 0.803688 0.411578
v -0.398937 0.808224 0.410991
v -0.514788 0.276260 0.459159
v -0.637812 0.817845 0.437104
v -0.641486 0.788115 0.450175
v -0.461259 0.807661 0.452564
v -0.756456 0.190147 0.388582
v -0.751304 0.836004 0.289348
v -0.788135 0.785793 0.399178
v -0.725596 0.809368 0.421342
v 0.158424 0.729688 0.409902
v 0.237004 0.724721 0.408072
v 0.452808 0.655346 0.469064
v 0.383738 0.722903 0.436121
v 0.774116 0.709379 0.446481
v 0.841123 0.709641 0.419663
v 0.776617 0.710262 0.410473
v 0.868901 0.409858 0.396890
v 0.306951 0.191143 0.456180
v 0.698720 0.710601 0.461068
v 0.326701 0.011238 0.402629
v 0.513842 0.106310 0.400975
v 0.604493 0.286663 0.434538
v 0.784632 0.198607 0.362980
v -0.894623 0.904935 -0.013369
v -0.838032 0.879408 -0.050229
v -0.873344 0.897305 0.031066
v -0.908822 0.592945 -0.070218
v -0.902440 0.854838 0.137023
v -0.912487 0.869203 -0.113712
v -0.863474 0.328700 -0.156180
v -0.828153 0.222275 0.016386
v -0.898797 0.422454 0.141373
v -0.905864 0.915475 -0.140243
v -0.838527 0.876209 -0.186397
v -0.861003 0.896241 -0.111666
v -0.821956 0.866336 -0.289003
v -0.862999 0.891353 -0.262828
v -0.831811 0.866659 -0.233011
v -0.912456 0.912471 -0.351259
v -0.855153 0.878731 -0.335086
v -0.832146 0.883021 -0.368022
v -0.882404 0.483405 -0.302084
v -0.846639 0.878314 -0.423944
v -0.783750 0.384233 -0.365198
v -0.770498 0.201110 -0.266933
v -0.820811 0.912391 0.188880
v -0.787389 0.834516 0.209153
v -0.821052 0.881850 0.089857
v -0.886996 0.898821 0.200740
v -0.871945 0.859211 0.286127
v -0.862060 0.840476 0.322336
v -0.828698 0.231745 0.269426
v -0.860808 0.383254 0.336894
v 0.255868 0.840236 -0.367827
v 0.267407 0.770980 -0.414568
v 0.162568 0.848925 -0.381217
v -0.020240 0.832723 -0.421346
v 0.048665 0.845033 -0.351004
v 0.202445 0.060633 -0.411631
v 0.029589 0.013434 -0.385935
v -0.059535 0.147859 -0.414842
v 0.367943 0.746365 -0.410486
v 0.700002 0.707424 -0.410333
v 0.541435 0.195493 -0.413253
v 0.573850 0.024272 -0.377042
v 0.630072 0.736082 -0.325547
v 0.605728 0.716104 -0.409564
v 0.435920 0.723689 -0.392064
v 0.892707 0.346699 -0.391314
v 0.810055 0.717557 -0.359995
v 0.879342 0.730670 -0.384353
v 0.776361 0.104600 -0.334590
v -0.249682 0.839501 -0.426731
v -0.128520 0.859925 -0.424602
v -0.441762 0.862637 -0.360260
v -0.380767 0.853949 -0.427240
v -0.504816 0.851603 -0.354951
v -0.773643 0.887670 -0.373777
v -0.665913 0.848460 -0.427330
v -0.340318 0.399904 -0.424277
v -0.438926 0.171284 -0.386373
v 0.971988 0.396129 0.030986
v 0.910868 0.306365 0.287296
v 0.909149 0.187418 0.007667
v 0.966053 0.728154 0.106723
v 0.878318 0.727133 0.211703
v 0.942233 0.696288 0.328334
v 0.959415 0.718161 0.248727
v 0.877651 0.704574 0.300643
v 0.917337 0.720520 0.366877
v 0.836154 0.707069 0.443565
v 0.868130 0.694737 0.335917
v 0.907338 0.715982 -0.132166
v 0.973561 0.716082 -0.167999
v 0.926641 0.725764 -0.008912
v 0.958582 0.726871 -0.323552
v 0.890975 0.726542 -0.184243
v 0.971117 0.710672 -0.100665
v 0.967086 0.366249 -0.331569
v 0.890624 0.749899 -0.249986
v 0.865028 0.148706 -0.237928
v 0.142549 -0.021383 0.367846
v -0.094212 -0.022355 -0.300104
v 0.357922 -0.017061 0.085377
v 0.750039 0.036450 -0.001337
v -0.407736 -0.003017 -0.161525
v -0.348542 -0.012318 0.352948
v -0.537152 0.017090 0.126478
v -0.742618 0.123613 0.138174
v -0.656937 0.079215 0.320034
v -0.624353 0.063245 -0.147590
v -0.538743 0.064720 -0.299562
v -0.702142 0.195228 -0.334563
v 0.626807 -0.006500 -0.267370
v 0.263228 -0.023714 -0.344879
v -0.775027 0.363844 0.416399
v -0.830444 0.821597 0.367889
v 0.444291 0.729610 0.412302
v 0.516427 0.717480 0.409470
v 0.630785 0.726755 0.458063
v -0.905450 0.911027 -0.058847
v -0.910184 0.913919 -0.204558
v -0.878768 0.769883 0.316443
v 0.338933 0.762751 -0.356885
v -0.269175 0.870823 -0.340471
v -0.530344 0.850577 -0.408518
v 0.930035 0.728854 0.067759
v 0.970269 0.720748 0.018212
v 0.955514 0.486940 0.292320
v 0.686557 0.112484 0.316114
vt 0.342116 0.615304
vt 0.328756 0.628482
vt 0.307851 0.613403
vt 0.295950 0.641160
vt 0.317870 0.637040
vt 0.299326 0.644688
vt 0.280311 0.627121
vt 0.329904 0.546250
vt 0.301993 0.447497
vt 0.332317 0.419858
vt 0.285519 0.418063
vt 0.289192 0.644066
vt 0.272577 0.641927
vt 0.261506 0.491657
vt 0.242416 0.643770
vt 0.247154 0.617241
vt 0.262828 0.646074
vt 0.245343 0.446171
vt 0.229487 0.629792
vt 0.231036 0.618943
vt 0.233994 0.638591
vt 0.347832 0.629673
vt 0.357718 0.626989
vt 0.386797 0.609846
vt 0.375959 0.626436
vt 0.431881 0.630517
vt 0.450523 0.628997
vt 0.437286 0.627474
vt 0.454330 0.536220
vt 0.369952 0.466198
vt 0.420267 0.631033
vt 0.388313 0.418089
vt 0.408154 0.446829
vt 0.415032 0.499063
vt 0.453876 0.478829
vt 0.124086 0.698941
vt 0.117549 0.688730
vt 0.137604 0.694299
vt 0.125230 0.597674
vt 0.158370 0.674356
vt 0.106634 0.675228
vt 0.112407 0.520916
vt 0.154176 0.494411
vt 0.173238 0.555077
vt 0.097454 0.698303
vt 0.088818 0.687415
vt 0.104703 0.692420
vt 0.067184 0.684269
vt 0.074109 0.689614
vt 0.080177 0.686090
vt 0.056727 0.686273
vt 0.053718 0.685328
vt 0.046444 0.679352
vt 0.084886 0.558677
vt 0.053295 0.628035
vt 0.072118 0.521511
vt 0.096802 0.480889
vt 0.163952 0.694275
vt 0.171600 0.680489
vt 0.146786 0.693580
vt 0.166849 0.702143
vt 0.184808 0.692688
vt 0.200844 0.671745
vt 0.191795 0.688643
vt 0.201955 0.503405
vt 0.211795 0.547545
vt 0.754448 0.636661
vt 0.752192 0.610721
vt 0.773666 0.640595
vt 0.817076 0.630737
vt 0.797548 0.641541
vt 0.768219 0.410646
vt 0.799202 0.397240
vt 0.820813 0.431690
vt 0.728138 0.609636
vt 0.658104 0.605569
vt 0.693783 0.438879
vt 0.683410 0.402509
vt 0.671348 0.601874
vt 0.679554 0.606413
vt 0.715432 0.604633
vt 0.623056 0.489899
vt 0.633396 0.601274
vt 0.620054 0.603763
vt 0.639904 0.420416
vt 0.861454 0.626477
vt 0.837341 0.644006
vt 0.903325 0.645307
vt 0.891643 0.648229
vt 0.912749 0.645310
vt 0.977102 0.656810
vt 0.949075 0.647998
vt 0.979996 0.639413
vt 0.880652 0.504809
vt 0.896437 0.446139
vt 0.530905 0.533137
vt 0.480882 0.501263
vt 0.529586 0.474933
vt 0.516939 0.634340
vt 0.500074 0.626261
vt 0.476622 0.615925
vt 0.491173 0.634364
vt 0.478905 0.627533
vt 0.465251 0.634429
vt 0.457066 0.629466
vt 0.469109 0.629426
vt 0.561361 0.624865
vt 0.564857 0.632498
vt 0.540848 0.627762
vt 0.587577 0.607597
vt 0.575230 0.631860
vt 0.553673 0.617739
vt 0.586301 0.521700
vt 0.581401 0.634653
vt 0.601523 0.604082
vt 0.605680 0.487812
vt 0.562969 0.457103
vt 0.620380 0.435668
vt 0.368727 0.405218
vt 0.460376 0.398905
vt 0.446977 0.406928
vt 0.506050 0.431374
vt 0.095905 0.418859
vt 0.184137 0.427683
vt 0.161756 0.435219
vt 0.175588 0.468107
vt 0.204558 0.458139
vt 0.306372 0.405483
vt 0.196493 0.436068
vt 0.210858 0.454327
vt 0.254467 0.431926
vt 0.219980 0.494903
vt 0.112631 0.443230
vt 0.916155 0.422909
vt 0.950691 0.448004
vt 0.075020 0.438891
vt 0.078339 0.469963
vt 0.534526 0.415690
vt 0.490728 0.400791
vt 0.675067 0.394665
vt 0.748901 0.387539
vt 0.234193 0.512545
vt 0.616202 0.348867
vt 0.616482 0.348760
vt 0.616607 0.353633
vt 0.242133 0.618491
vt 0.385136 0.628565
vt 0.395132 0.629627
vt 0.409742 0.631503
vt 0.114645 0.699980
vt 0.085463 0.696750
vt 0.197295 0.655877
vt 0.198971 0.682540
vt 0.221583 0.539260
vt 0.207228 0.645327
vt 0.229249 0.622699
vt 0.740292 0.610367
vt 0.861490 0.636703
vt 0.925995 0.650220
vt 0.987596 0.659548
vt 0.993447 0.648062
vt 0.968472 0.507566
vt 0.525144 0.630819
vt 0.532376 0.633332
vt 0.488257 0.551099
vt 0.449697 0.450935
vt 0.368602 0.400604
vt 0.356654 0.399872
vt 0.045434 0.404881
vt 0.851603 0.394921
vt 0.878428 0.406330
vt 0.480368 0.399923
vt 0.796555 0.387290
vt 0.635317 0.416291
vn 0.0751 0.6102 0.7887
vn 0.0985 0.8227 0.5599
vn -0.0175 0.3078 0.9513
vn 0.1083 0.6281 0.7706
vn 0.1712 -0.2880 0.9422
vn -0.1072 -0.9711 -0.2131
vn 0.0390 0.5657 0.8237
vn 0.0079 -0.0178 0.9998
vn -0.0323 -0.1496 0.9882
vn 0.0038 -0.5631 0.8264
vn -0.1999 -0.6290 0.7513
vn 0.0865 0.9132 0.3982
vn 0.1094 0.9607 0.2551
vn -0.1220 -0.1235 0.9848
vn -0.1247 0.4122 0.9025
vn -0.1659 0.1944 0.9668
vn -0.0119 0.4673 0.8840
vn -0.5690 -0.4912 0.6596
vn -0.7582 -0.2630 0.5966
vn -0.5347 0.4726 0.7005
vn -0.4407 0.0710 0.8948
vn 0.1050 0.9790 0.1748
vn 0.0140 0.9977 0.0668
vn 0.0367 0.2295 0.9726
vn 0.1419 0.6119 0.7781
vn 0.2516 0.2687 0.9298
vn 0.5175 -0.5465 0.6584
vn 0.0061 0.9997 0.0249
vn 0.5552 -0.1827 0.8114
vn 0.0733 -0.1497 0.9860
vn 0.0844 -0.0509 0.9951
vn 0.1890 -0.7491 0.6349
vn 0.2609 -0.4772 0.8392
vn 0.1730 -0.1835 0.9677
vn 0.5109 -0.5524 0.6587
vn -0.3941 -0.9185 0.0310
vn -0.6910 0.7016 -0.1742
vn -0.6846 0.7186 0.1217
vn -0.9974 -0.0688 -0.0191
vn -0.8318 0.5304 0.1637
vn -0.8152 0.5791 -0.0044
vn -0.9312 -0.3380 -0.1363
vn -0.8432 -0.5358 -0.0444
vn -0.9846 -0.1640 0.0606
vn -0.4470 -0.8885 0.1037
vn -0.9093 0.3427 -0.2360
vn -0.9765 0.2086 0.0540
vn 0.1510 0.9866 0.0618
vn -0.7859 -0.5179 -0.3378
vn 0.0603 0.9083 0.4138
vn -0.6704 0.6930 -0.2652
vn 0.3873 0.8400 0.3800
vn 0.1693 0.9855 -0.0061
vn -0.8853 -0.2054 -0.4172
vn -0.3165 0.5111 -0.7991
vn -0.4724 -0.2571 -0.8431
vn -0.7149 -0.5948 -0.3676
vn -0.6140 -0.7847 -0.0846
vn -0.8782 0.4623 -0.1228
vn -0.2788 0.9446 0.1731
vn -0.1973 -0.9051 -0.3766
vn -0.9356 -0.1287 0.3288
vn -0.1466 -0.9183 -0.3677
vn -0.8523 -0.4923 0.1769
vn -0.8771 -0.1409 0.4593
vn 0.1685 0.5706 -0.8038
vn 0.0959 0.2976 -0.9499
vn 0.1195 0.6369 -0.7617
vn 0.0221 0.2031 -0.9789
vn -0.0634 0.9917 -0.1114
vn 0.0170 -0.3197 -0.9474
vn -0.0781 -0.6252 -0.7766
vn -0.0481 -0.1515 -0.9873
vn 0.1092 0.3775 -0.9196
vn 0.0759 0.3080 -0.9484
vn 0.0652 -0.0961 -0.9932
vn 0.1962 -0.6456 -0.7381
vn 0.1032 0.9742 -0.2006
vn -0.1208 -0.9391 0.3219
vn 0.0979 0.7876 0.6083
vn 0.4309 -0.1871 -0.8828
vn -0.1444 0.9824 0.1180
vn 0.3704 0.1946 -0.9083
vn 0.5276 -0.6421 -0.5561
vn -0.0121 0.5290 -0.8485
vn -0.0055 -0.0271 -0.9996
vn -0.1887 0.9372 -0.2934
vn 0.0058 0.2467 -0.9691
vn -0.0637 0.9950 -0.0770
vn 0.0862 0.9492 -0.3025
vn 0.0028 0.1397 -0.9902
vn -0.0497 -0.0670 -0.9965
vn -0.1529 -0.3189 -0.9354
vn 0.9868 -0.1528 0.0536
vn 0.8375 -0.4075 0.3641
vn 0.8331 -0.5451 0.0936
vn 0.9693 0.2410 0.0496
vn 0.9676 -0.1583 0.1968
vn 0.6994 0.5783 0.4200
vn -0.0389 -0.9873 -0.1540
vn 0.0220 0.9653 0.2603
vn 0.2885 -0.9307 0.2247
vn 0.0791 -0.9928 -0.0904
vn 0.1656 0.9751 0.1476
vn 0.1167 -0.0751 0.9903
vn -0.0212 -0.9989 -0.0419
vn 0.3035 0.9509 -0.0610
vn 0.8780 0.2815 -0.3871
vn 0.2517 0.9621 0.1053
vn 0.7678 0.6403 -0.0223
vn 0.8818 -0.2004 -0.4269
vn 0.5615 0.7807 0.2744
vn 0.7427 -0.6400 -0.1970
vn 0.0428 -0.9612 0.2725
vn -0.0930 -0.9528 -0.2891
vn 0.0882 -0.9948 0.0513
vn 0.4667 -0.8780 0.1065
vn -0.1830 -0.9748 -0.1274
vn -0.1349 -0.9530 0.2712
vn -0.3106 -0.9504 0.0166
vn -0.6310 -0.7756 0.0159
vn -0.4636 -0.8291 0.3124
vn -0.4682 -0.8721 -0.1421
vn -0.3068 -0.7789 -0.5469
vn -0.4354 -0.5051 -0.7451
vn 0.2975 -0.9392 -0.1715
vn 0.0230 -0.9048 -0.4253
vn -0.4631 -0.0920 0.8815
vn -0.0738 -0.9651 -0.2514
vn 0.2316 0.6074 0.7599
vn -0.1691 0.7026 0.6912
vn -0.2062 -0.7501 0.6284
vn -0.4129 -0.9059 -0.0938
vn -0.4843 -0.8682 0.1081
vn -0.8095 0.2371 0.5370
vn 0.2409 0.9569 -0.1622
vn 0.0990 -0.2303 -0.9681
vn -0.0205 0.9997 0.0159
vn 0.1123 0.9895 -0.0904
vn -0.1424 -0.9887 0.0462
vn 0.9357 -0.0958 0.3396
vn 0.4032 -0.8086 0.4285
s 1
f 1/1/1 2/2/2 3/3/3
f 4/4/4 3/3/3 5/5/5
f 5/5/5 6/6/6 4/4/4
f 7/7/7 3/3/3 4/4/4
f 3/3/3 8/8/8 1/1/1
f 8/8/8 3/3/3 9/9/9
f 9/9/9 10/10/10 8/8/8
f 9/9/9 11/11/11 10/10/10
f 7/7/7 12/12/12 13/13/13
f 11/11/11 9/9/9 14/14/14
f 15/15/15 16/16/16 17/17/17
f 16/16/16 14/14/14 7/7/7
f 11/11/11 14/14/14 18/18/18
f 19/19/19 20/20/20 21/21/21
f 2/2/2 1/1/1 22/22/22
f 1/1/1 23/23/23 22/22/22
f 1/1/1 24/24/24 25/25/25
f 1/1/1 25/25/25 23/23/23
f 26/26/26 27/27/27 28/28/28
f 26/26/26 29/29/29 27/27/27
f 30/30/30 31/31/31 24/24/24
f 30/30/30 10/10/10 32/32/32
f 33/33/33 30/30/30 32/32/32
f 34/34/34 30/30/30 33/33/33
f 35/35/35 34/34/34 33/33/33
f 34/34/34 35/35/35 29/29/29
f 36/36/36 37/37/37 38/38/38
f 39/39/39 40/40/40 41/41/41
f 42/42/42 43/43/43 44/44/44
f 45/45/45 46/46/46 47/47/47
f 41/41/41 47/47/47 46/46/46
f 48/48/48 41/41/41 49/49/49
f 50/50/50 49/49/49 41/41/41
f 39/39/39 41/41/41 51/51/51
f 51/51/51 52/52/52 53/53/53
f 54/54/54 51/51/51 55/55/55
f 54/54/54 56/56/56 57/57/57
f 58/58/58 40/40/40 59/59/59
f 40/40/40 58/58/58 60/60/60
f 61/61/61 59/59/59 62/62/62
f 19/63/19 63/64/63 62/62/62
f 64/65/64 65/66/65 44/44/44
f 44/44/44 43/43/43 64/65/64
f 66/67/66 67/68/67 68/69/68
f 69/70/69 70/71/70 68/69/68
f 69/70/69 67/68/67 71/72/71
f 72/73/72 73/74/73 71/72/71
f 74/75/74 75/76/75 76/77/76
f 74/75/74 76/77/76 67/68/67
f 67/68/67 76/77/76 71/72/71
f 76/77/76 77/78/77 71/72/71
f 78/79/78 74/75/74 79/80/79
f 79/80/79 74/75/74 80/81/80
f 75/76/75 81/82/81 76/77/76
f 77/78/77 76/77/76 81/82/81
f 82/83/82 83/84/83 75/76/75
f 84/85/84 77/78/77 81/82/81
f 85/86/85 86/87/86 69/70/69
f 87/88/87 88/89/88 89/90/89
f 90/91/90 91/92/91 55/93/55
f 55/93/55 91/92/91 92/94/92
f 73/74/73 93/95/93 92/94/92
f 94/96/94 95/97/95 96/98/96
f 97/99/97 98/100/98 99/101/99
f 95/97/95 35/35/35 96/98/96
f 98/100/98 100/102/100 101/103/101
f 101/103/101 99/101/99 98/100/98
f 27/27/27 102/104/102 103/105/103
f 104/106/104 102/104/102 27/27/27
f 99/101/99 101/103/101 104/106/104
f 99/101/99 27/27/27 29/29/29
f 105/107/105 106/108/106 107/109/107
f 108/110/108 109/111/109 110/112/110
f 105/107/105 109/111/109 106/108/106
f 111/113/111 108/110/108 110/112/110
f 109/111/109 108/110/108 112/114/112
f 96/98/96 111/113/111 94/96/94
f 81/82/81 108/115/108 111/116/111
f 96/98/96 113/117/113 111/113/111
f 111/116/111 113/118/113 84/85/84
f 84/85/84 81/82/81 111/116/111
f 114/119/114 115/120/115 116/121/116
f 117/122/117 32/32/32 116/121/116
f 118/123/118 119/124/119 120/125/120
f 64/65/64 121/126/121 122/127/122
f 119/128/119 10/10/10 11/11/11
f 122/127/122 119/129/119 11/130/11
f 18/18/18 122/131/122 11/11/11
f 18/132/18 64/65/64 122/127/122
f 123/133/123 118/123/118 120/125/120
f 124/134/124 125/135/125 93/95/93
f 57/57/57 124/136/124 123/133/123
f 57/57/57 125/137/125 124/136/124
f 126/138/126 113/117/113 117/122/117
f 126/138/126 116/121/116 127/139/127
f 77/78/77 126/140/126 127/141/127
f 77/78/77 84/85/84 126/140/126
f 3/3/3 2/2/2 5/5/5
f 13/13/13 17/17/17 7/7/7
f 7/7/7 4/4/4 12/12/12
f 3/3/3 7/7/7 14/14/14
f 14/14/14 9/9/9 3/3/3
f 17/17/17 16/16/16 7/7/7
f 14/14/14 128/142/128 18/18/18
f 19/143/19 21/144/21 129/145/129
f 20/20/20 16/146/16 21/21/21
f 15/15/15 21/21/21 16/146/16
f 128/142/128 16/146/16 20/20/20
f 128/142/128 14/14/14 16/146/16
f 30/30/30 24/24/24 1/1/1
f 24/24/24 130/147/130 25/25/25
f 131/148/131 24/24/24 31/31/31
f 132/149/132 131/148/131 31/31/31
f 8/8/8 10/10/10 30/30/30
f 1/1/1 8/8/8 30/30/30
f 34/34/34 26/26/26 31/31/31
f 29/29/29 26/26/26 34/34/34
f 31/31/31 30/30/30 34/34/34
f 47/47/47 37/37/37 133/150/133
f 41/41/41 40/40/40 38/38/38
f 41/41/41 38/38/38 37/37/37
f 42/42/42 44/44/44 39/39/39
f 57/57/57 121/126/121 43/43/43
f 134/151/134 50/50/50 46/46/46
f 47/47/47 41/41/41 37/37/37
f 39/39/39 54/54/54 42/42/42
f 43/43/43 42/42/42 57/57/57
f 51/51/51 41/41/41 48/48/48
f 50/50/50 41/41/41 46/46/46
f 39/39/39 51/51/51 54/54/54
f 42/42/42 54/54/54 57/57/57
f 56/56/56 54/54/54 55/55/55
f 125/137/125 57/57/57 56/56/56
f 60/60/60 38/38/38 40/40/40
f 60/60/60 58/58/58 61/61/61
f 62/62/62 59/59/59 40/40/40
f 59/59/59 61/61/61 58/58/58
f 62/62/62 40/40/40 135/152/135
f 129/153/129 63/64/63 19/63/19
f 62/62/62 135/152/135 19/63/19
f 39/39/39 44/44/44 40/40/40
f 135/152/135 40/40/40 44/44/44
f 128/154/128 135/152/135 65/66/65
f 135/152/135 128/154/128 20/155/20
f 20/20/20 19/19/19 135/156/135
f 65/66/65 135/152/135 44/44/44
f 128/154/128 65/66/65 18/132/18
f 64/65/64 43/43/43 121/126/121
f 64/65/64 18/132/18 65/66/65
f 68/69/68 67/68/67 69/70/69
f 71/72/71 92/94/92 69/70/69
f 73/74/73 92/94/92 71/72/71
f 74/75/74 67/68/67 136/157/136
f 78/79/78 75/76/75 74/75/74
f 108/115/108 81/82/81 83/84/83
f 83/84/83 81/82/81 75/76/75
f 85/86/85 137/158/137 86/87/86
f 88/89/88 137/158/137 85/86/85
f 137/158/137 88/89/88 86/87/86
f 88/89/88 85/86/85 92/94/92
f 138/159/138 89/90/89 88/89/88
f 138/159/138 88/89/88 91/92/91
f 88/89/88 92/94/92 91/92/91
f 53/160/53 90/91/90 55/93/55
f 55/93/55 51/161/51 53/160/53
f 92/94/92 85/86/85 69/70/69
f 93/95/93 56/162/56 92/94/92
f 56/162/56 55/93/55 92/94/92
f 72/73/72 93/95/93 73/74/73
f 93/95/93 125/135/125 56/162/56
f 97/99/97 110/112/110 139/163/139
f 107/109/107 140/164/140 139/163/139
f 141/165/141 94/96/94 97/99/97
f 94/96/94 110/112/110 97/99/97
f 97/99/97 100/102/100 98/100/98
f 99/101/99 141/165/141 97/99/97
f 95/97/95 94/96/94 141/165/141
f 35/35/35 117/122/117 96/98/96
f 27/27/27 99/101/99 104/106/104
f 29/29/29 141/165/141 99/101/99
f 29/29/29 95/97/95 141/165/141
f 35/35/35 95/97/95 29/29/29
f 107/109/107 139/163/139 110/112/110
f 110/112/110 105/107/105 107/109/107
f 111/113/111 110/112/110 94/96/94
f 105/107/105 110/112/110 109/111/109
f 114/119/114 32/32/32 10/10/10
f 114/119/114 116/121/116 32/32/32
f 142/166/142 32/32/32 117/122/117
f 33/33/33 32/32/32 142/166/142
f 35/35/35 33/33/33 142/166/142
f 142/166/142 117/122/117 35/35/35
f 123/133/123 120/125/120 121/126/121
f 115/167/115 114/119/114 119/168/119
f 120/125/120 119/129/119 122/127/122
f 120/125/120 122/127/122 121/126/121
f 119/128/119 114/119/114 10/10/10
f 118/123/118 115/169/115 119/124/119
f 124/136/124 115/169/115 118/123/118
f 115/170/115 124/171/124 72/73/72
f 124/171/124 93/95/93 72/73/72
f 123/133/123 124/136/124 118/123/118
f 123/133/123 121/126/121 57/57/57
f 117/122/117 116/121/116 126/138/126
f 115/120/115 127/172/127 116/121/116
f 113/117/113 96/98/96 117/122/117
f 72/73/72 127/141/127 115/173/115
f 71/72/71 127/141/127 72/73/72
f 77/78/77 127/141/127 71/72/71
f 113/174/113 126/140/126 84/85/84
