# Blender v3.1.2 OBJ File: ''
# www.blender.org
o Icosphere.003
v -0.346525 1.767899 -0.426693
v -0.328209 1.781891 -0.421344
v -0.353521 1.781891 -0.418039
v -0.369165 1.781891 -0.426693
v -0.353521 1.781891 -0.435347
v -0.328209 1.781891 -0.432041
v -0.339529 1.804531 -0.418039
v -0.364841 1.804531 -0.421344
v -0.364841 1.804531 -0.432041
v -0.339529 1.804531 -0.435347
v -0.323885 1.804531 -0.426693
v -0.346525 1.818523 -0.426693
v 0.409699 1.746245 -0.423378
v 0.428745 1.760796 -0.417816
v 0.402424 1.760796 -0.414379
v 0.386156 1.760796 -0.423378
v 0.402424 1.760796 -0.432378
v 0.428745 1.760796 -0.428940
v 0.416974 1.784338 -0.414379
v 0.390652 1.784338 -0.417816
v 0.390652 1.784338 -0.428940
v 0.416974 1.784338 -0.432378
v 0.433241 1.784338 -0.423378
v 0.409699 1.798889 -0.423378
vt 0.181819 0.000000
vt 0.272728 0.157461
vt 0.090910 0.157461
vt 0.363637 0.000000
vt 0.454546 0.157461
vt 0.909091 0.000000
vt 1.000000 0.157461
vt 0.818182 0.157461
vt 0.727273 0.000000
vt 0.636364 0.157461
vt 0.545455 0.000000
vt 0.363637 0.314921
vt 0.181819 0.314921
vt 0.909091 0.314921
vt 0.727273 0.314921
vt 0.545455 0.314921
vt 0.000000 0.314921
vt 0.272728 0.472382
vt 0.090910 0.472382
vt 0.818182 0.472382
vt 0.636364 0.472382
vt 0.454546 0.472382
vt 0.181819 0.000000
vt 0.272728 0.157461
vt 0.090910 0.157461
vt 0.363637 0.000000
vt 0.454546 0.157461
vt 0.909091 0.000000
vt 1.000000 0.157461
vt 0.818182 0.157461
vt 0.727273 0.000000
vt 0.636364 0.157461
vt 0.545455 0.000000
vt 0.363637 0.314921
vt 0.181819 0.314921
vt 0.909091 0.314921
vt 0.727273 0.314921
vt 0.545455 0.314921
vt 0.000000 0.314921
vt 0.272728 0.472382
vt 0.090910 0.472382
vt 0.818182 0.472382
vt 0.636364 0.472382
vt 0.454546 0.472382
vn 0.0057 -1.0000 0.0000
vn 0.6829 -0.4221 0.5963
vn -0.1911 -0.3092 0.9316
vn 0.6829 -0.4221 -0.5963
vn -0.8970 -0.4421 -0.0000
vn -0.1911 -0.3092 -0.9316
vn 0.8970 0.4421 0.0000
vn 0.1911 0.3092 0.9316
vn -0.6829 0.4221 0.5963
vn -0.6829 0.4221 -0.5963
vn 0.1911 0.3092 -0.9316
vn -0.0057 1.0000 0.0000
s 1
f 1/1/1 2/2/2 3/3/3
f 2/2/2 1/4/1 6/5/4
f 1/6/1 3/7/3 4/8/5
f 1/9/1 4/8/5 5/10/6
f 1/11/1 5/10/6 6/5/4
f 2/2/2 6/5/4 11/12/7
f 3/3/3 2/2/2 7/13/8
f 4/8/5 3/7/3 8/14/9
f 5/10/6 4/8/5 9/15/10
f 6/5/4 5/10/6 10/16/11
f 2/2/2 11/12/7 7/13/8
f 3/3/3 7/13/8 8/17/9
f 4/8/5 8/14/9 9/15/10
f 5/10/6 9/15/10 10/16/11
f 6/5/4 10/16/11 11/12/7
f 7/13/8 11/12/7 12/18/12
f 8/17/9 7/13/8 12/19/12
f 9/15/10 8/14/9 12/20/12
f 10/16/11 9/15/10 12/21/12
f 11/12/7 10/16/11 12/22/12
f 13/23/1 14/24/2 15/25/3
f 14/24/2 13/26/1 18/27/4
f 13/28/1 15/29/3 16/30/5
f 13/31/1 16/30/5 17/32/6
f 13/33/1 17/32/6 18/27/4
f 14/24/2 18/27/4 23/34/7
f 15/25/3 14/24/2 19/35/8
f 16/30/5 15/29/3 20/36/9
f 17/32/6 16/30/5 21/37/10
f 18/27/4 17/32/6 22/38/11
f 14/24/2 23/34/7 19/35/8
f 15/25/3 19/35/8 20/39/9
f 16/30/5 20/36/9 21/37/10
f 17/32/6 21/37/10 22/38/11
f 18/27/4 22/38/11 23/34/7
f 19/35/8 23/34/7 24/40/12
f 20/39/9 19/35/8 24/41/12
f 21/37/10 20/36/9 24/42/12
f 22/38/11 21/37/10 24/43/12
f 23/34/7 22/38/11 24/44/12
