# Blender v3.1.2 OBJ File: ''
# www.blender.org
o Cube.829_Cube.001
v 0.924136 2.258921 -1.654395
v 0.888066 2.301640 -1.659623
v 0.918650 2.290467 -1.656019
v 0.862969 2.281265 -1.661603
v 0.899039 2.238546 -1.656375
v 0.868455 2.249719 -1.659979
v 0.924136 2.258921 -1.654395
v 0.922857 2.299169 -1.375276
v 0.897600 2.279855 -1.369071
v 0.899039 2.238546 -1.656375
v 0.918650 2.290467 -1.656019
v 0.917469 2.330063 -1.381932
v 0.888066 2.301640 -1.659623
v 0.886824 2.341644 -1.382384
v 0.862969 2.281265 -1.661603
v 0.861566 2.322330 -1.376180
v 0.868455 2.249719 -1.659979
v 0.866954 2.291436 -1.369524
v 0.960194 2.374339 -1.137146
v 0.935095 2.355449 -1.129248
v 0.954700 2.404950 -1.144930
v 0.924108 2.416673 -1.144816
v 0.899009 2.397784 -1.136918
v 0.904502 2.367172 -1.129134
v 0.982952 2.449395 -0.814366
v 0.957465 2.429494 -0.812297
v 0.977820 2.480951 -0.816705
v 0.947201 2.492607 -0.816977
v 0.921715 2.472707 -0.814909
v 0.926847 2.441150 -0.812569
v 0.975097 2.427697 -0.516735
v 0.949704 2.409429 -0.525197
v 0.969841 2.457082 -0.505062
v 0.939192 2.468198 -0.501852
v 0.913799 2.449929 -0.510315
v 0.919055 2.420545 -0.521987
v 0.962478 2.256765 -0.312453
v 0.937544 2.245898 -0.330095
v 0.956512 2.274711 -0.286593
v 0.925613 2.281790 -0.278376
v 0.900679 2.270922 -0.296018
v 0.906645 2.252976 -0.321878
v 0.954831 1.930917 -0.203720
v 0.930074 1.925894 -0.224068
v 0.948579 1.939392 -0.173476
v 0.917570 1.942844 -0.163580
v 0.892813 1.937822 -0.183928
v 0.899065 1.929347 -0.214172
v 0.950816 1.642089 -0.141101
v 0.926071 1.637738 -0.161621
v 0.944545 1.649521 -0.110589
v 0.913529 1.652602 -0.100597
v 0.888785 1.648250 -0.121117
v 0.895055 1.640819 -0.151629
v 0.945125 1.372367 -0.070712
v 0.920392 1.368819 -0.091405
v 0.938833 1.378459 -0.039910
v 0.907808 1.381003 -0.029802
v 0.883076 1.377454 -0.050496
v 0.889368 1.371362 -0.081298
v 0.942843 1.030768 -0.026909
v 0.918109 1.028906 -0.047830
v 0.936557 1.033124 0.004397
v 0.905535 1.033617 0.014782
v 0.880801 1.031755 -0.006140
v 0.887087 1.029400 -0.037446
v 0.953300 0.764257 -0.019889
v 0.928557 0.762611 -0.040820
v 0.947102 0.764385 0.011520
v 0.916160 0.762867 0.021997
v 0.891417 0.761221 0.001066
v 0.897615 0.761093 -0.030343
v 0.970353 0.566186 -0.019272
v 0.945608 0.564572 -0.040204
v 0.964131 0.566716 0.012128
v 0.933165 0.565631 0.022597
v 0.908420 0.564017 0.001665
v 0.914641 0.563488 -0.029736
v 0.974726 0.300840 -0.006560
v 0.950071 0.302293 -0.027625
v 0.968566 0.303458 0.024750
v 0.937751 0.307528 0.034994
v 0.913097 0.308981 0.013928
v 0.919257 0.306364 -0.017381
v 0.920181 0.091809 0.009147
v 0.901477 0.106358 -0.012817
v 0.915700 0.098120 0.040203
v 0.892513 0.118980 0.049295
v 0.873808 0.133529 0.027331
v 0.878290 0.127218 -0.003725
v 0.663708 -0.003380 0.017098
v 0.658661 0.018793 -0.005471
v 0.662542 0.004782 0.048007
v 0.656330 0.035117 0.056347
v 0.651284 0.057290 0.033778
v 0.652449 0.049128 0.002869
v 0.059491 -0.028318 0.019384
v 0.059253 -0.005635 -0.003187
v 0.058779 -0.020108 0.050293
v 0.057828 0.010785 0.058632
v 0.057589 0.033467 0.036061
v 0.058302 0.025257 0.005152
vt 0.927113 0.978542
vt 0.932195 0.978542
vt 0.929654 0.978542
vt 0.934736 0.978542
vt 0.939819 0.978542
vt 0.937278 0.978542
vt 0.927113 0.991248
vt 0.927536 0.989131
vt 0.927113 0.989131
vt 0.927113 0.980660
vt 0.927536 0.978542
vt 0.927113 0.978542
vt 0.927536 0.982777
vt 0.927113 0.982777
vt 0.927536 0.984895
vt 0.927113 0.984895
vt 0.927536 0.987013
vt 0.927113 0.987013
vt 0.927536 0.991248
vt 0.927960 0.989131
vt 0.927536 0.980660
vt 0.927960 0.978542
vt 0.927960 0.982777
vt 0.927960 0.984895
vt 0.927960 0.987013
vt 0.927960 0.991248
vt 0.928383 0.989131
vt 0.927960 0.980660
vt 0.928383 0.978542
vt 0.928383 0.980660
vt 0.928383 0.984895
vt 0.928383 0.987013
vt 0.928383 0.991248
vt 0.928807 0.989131
vt 0.928807 0.978542
vt 0.928383 0.982777
vt 0.928807 0.980660
vt 0.928807 0.984895
vt 0.928807 0.987013
vt 0.929230 0.991248
vt 0.928807 0.991248
vt 0.929230 0.980660
vt 0.929230 0.982777
vt 0.928807 0.982777
vt 0.929230 0.984895
vt 0.929230 0.989131
vt 0.929654 0.991248
vt 0.929654 0.980660
vt 0.929230 0.978542
vt 0.929654 0.982777
vt 0.929230 0.987013
vt 0.929654 0.984895
vt 0.929654 0.987013
vt 0.930077 0.991248
vt 0.929654 0.989131
vt 0.930077 0.980660
vt 0.929654 0.978542
vt 0.930077 0.982777
vt 0.930077 0.984895
vt 0.930077 0.987013
vt 0.930501 0.989131
vt 0.930077 0.989131
vt 0.930501 0.978542
vt 0.930077 0.978542
vt 0.930501 0.980660
vt 0.930501 0.984895
vt 0.930501 0.987013
vt 0.930925 0.991248
vt 0.930501 0.991248
vt 0.930925 0.980660
vt 0.930501 0.982777
vt 0.930925 0.982777
vt 0.930925 0.984895
vt 0.930925 0.989131
vt 0.931348 0.991248
vt 0.931348 0.980660
vt 0.930925 0.978542
vt 0.931348 0.982777
vt 0.930925 0.987013
vt 0.931348 0.984895
vt 0.931348 0.987013
vt 0.931772 0.989131
vt 0.931348 0.989131
vt 0.931772 0.980660
vt 0.931348 0.978542
vt 0.931772 0.982777
vt 0.931772 0.984895
vt 0.931772 0.987013
vt 0.931772 0.991248
vt 0.932195 0.989131
vt 0.932195 0.980660
vt 0.931772 0.978542
vt 0.932195 0.982777
vt 0.932195 0.984895
vt 0.932195 0.987013
vt 0.932195 0.991248
vt 0.932619 0.989131
vt 0.932619 0.980660
vt 0.932195 0.978542
vt 0.932619 0.982777
vt 0.932619 0.984895
vt 0.932619 0.987013
vt 0.933042 0.991248
vt 0.932619 0.991248
vt 0.933042 0.978542
vt 0.932619 0.978542
vt 0.933042 0.980660
vt 0.933042 0.982777
vt 0.933042 0.987013
vt 0.933042 0.989131
vt 0.933466 0.991248
vt 0.933466 0.978542
vt 0.933466 0.980660
vt 0.933042 0.984895
vt 0.933466 0.982777
vt 0.933466 0.987013
vt 0.933466 0.989131
vt 0.933466 0.984895
vn 0.1051 -0.0329 -0.9939
vn 0.9176 -0.3928 0.0608
vn 0.1317 -0.9686 0.2106
vn 0.1162 -0.9830 0.1418
vn 0.7747 0.6263 -0.0869
vn 0.9195 -0.3925 0.0211
vn -0.1862 0.9608 -0.2052
vn -0.1885 0.9719 -0.1410
vn -0.9431 0.3323 -0.0061
vn -0.9496 0.3095 -0.0494
vn -0.7651 -0.6134 0.1958
vn -0.7665 -0.6362 0.0874
vn 0.1755 -0.9544 0.2415
vn 0.7705 0.6066 -0.1957
vn 0.9358 -0.3523 -0.0093
vn -0.1473 0.9582 -0.2453
vn -0.9245 0.3811 0.0002
vn -0.7634 -0.5958 0.2494
vn 0.1736 -0.9820 0.0746
vn 0.7619 0.5977 -0.2494
vn 0.9485 -0.3168 0.0050
vn 0.7580 0.6490 -0.0655
vn -0.9116 0.4110 -0.0117
vn -0.7927 -0.6061 0.0652
vn 0.1757 -0.9151 -0.3628
vn 0.9633 -0.2602 -0.0655
vn -0.1300 0.9889 -0.0724
vn 0.7278 0.6243 0.2838
vn -0.8965 0.4221 0.1349
vn -0.8212 -0.5165 -0.2429
vn 0.9660 -0.1729 -0.1924
vn 0.7142 0.3738 0.5918
vn -0.1675 0.5622 0.8098
vn -0.1389 0.9194 0.3679
vn -0.9112 0.2596 0.3198
vn 0.1903 -0.5577 -0.8079
vn 0.9491 -0.0992 -0.2990
vn 0.7416 0.1655 0.6501
vn -0.1854 0.2648 0.9463
vn -0.8035 -0.3107 -0.5078
vn -0.9384 0.1082 0.3280
vn -0.7600 -0.1583 -0.6303
vn 0.9422 -0.0934 -0.3219
vn 0.1892 -0.2620 -0.9463
vn 0.7543 0.1400 0.6414
vn -0.1882 0.2312 0.9545
vn -0.9461 0.0907 0.3109
vn -0.7468 -0.1421 -0.6497
vn 0.1906 -0.1893 -0.9633
vn 0.1879 -0.2312 -0.9546
vn 0.9505 -0.0716 -0.3024
vn 0.7391 0.1182 0.6631
vn -0.9382 0.0782 0.3371
vn -0.7612 -0.1133 -0.6385
vn 0.9487 -0.0087 -0.3161
vn 0.7388 0.0639 0.6709
vn -0.1873 0.1893 0.9639
vn -0.1931 0.0725 0.9785
vn -0.9402 0.0110 0.3405
vn 0.1851 -0.0726 -0.9800
vn 0.9423 0.0542 -0.3304
vn 0.7450 0.0565 0.6646
vn -0.1932 0.0024 0.9812
vn -0.7612 -0.0624 -0.6456
vn -0.9416 -0.0540 0.3324
vn -0.7552 -0.0570 -0.6530
vn 0.1964 -0.0150 -0.9804
vn 0.1804 -0.0032 -0.9836
vn 0.7585 0.0557 0.6493
vn -0.1784 0.0159 0.9838
vn -0.9438 -0.0410 0.3280
vn -0.7419 -0.0557 -0.6682
vn 0.9417 0.0398 -0.3340
vn 0.2214 -0.0865 -0.9713
vn 0.7667 -0.0500 0.6400
vn -0.1493 0.0750 0.9859
vn -0.9358 0.1152 0.3331
vn -0.7285 0.0322 -0.6843
vn 0.9406 -0.1291 -0.3139
vn 0.2329 -0.2880 -0.9289
vn 0.6007 -0.4953 0.6276
vn -0.0215 0.0919 0.9955
vn -0.6800 0.6431 0.3521
vn -0.4970 0.3892 -0.7755
vn 0.1853 -0.9516 -0.2453
vn 0.7099 -0.6596 -0.2472
vn 0.1532 -0.7135 0.6838
vn -0.0237 0.2109 0.9772
vn -0.1376 0.6716 -0.7280
vn 0.0431 -0.2985 -0.9534
vn 0.0238 -0.9671 -0.2531
vn 0.0041 -0.7088 0.7054
vn -0.1718 0.9454 0.2771
vn -0.0193 0.2481 0.9685
vn -0.0040 0.7083 -0.7059
vn 0.0194 -0.2635 -0.9645
vn -0.0227 0.9631 0.2681
s off
f 1/1/1 2/2/1 3/3/1
f 1/1/1 4/4/1 2/2/1
f 5/5/1 4/4/1 1/1/1
f 5/5/1 6/6/1 4/4/1
s 1
f 7/7/2 9/8/3 10/9/4
f 11/10/5 8/11/6 7/12/2
f 14/13/7 11/10/5 13/14/8
f 16/15/9 13/14/8 15/16/10
f 18/17/11 15/16/10 17/18/12
f 10/9/4 18/17/11 17/18/12
f 8/19/6 20/20/13 9/8/3
f 12/21/14 19/22/15 8/11/6
f 22/23/16 12/21/14 14/13/7
f 23/24/17 14/13/7 16/15/9
f 24/25/18 16/15/9 18/17/11
f 9/8/3 24/25/18 18/17/11
f 19/26/15 26/27/19 20/20/13
f 21/28/20 25/29/21 19/22/15
f 22/23/16 27/30/22 21/28/20
f 29/31/23 22/23/16 23/24/17
f 30/32/24 23/24/17 24/25/18
f 26/27/19 24/25/18 20/20/13
f 25/33/21 32/34/25 26/27/19
f 27/30/22 31/35/26 25/29/21
f 28/36/27 33/37/28 27/30/22
f 35/38/29 28/36/27 29/31/23
f 36/39/30 29/31/23 30/32/24
f 32/34/25 30/32/24 26/27/19
f 37/40/31 32/34/25 31/41/26
f 39/42/32 31/35/26 33/37/28
f 40/43/33 33/37/28 34/44/34
f 35/38/29 40/43/33 34/44/34
f 36/39/30 41/45/35 35/38/29
f 38/46/36 36/39/30 32/34/25
f 43/47/37 38/46/36 37/40/31
f 45/48/38 37/49/31 39/42/32
f 46/50/39 39/42/32 40/43/33
f 41/45/35 46/50/39 40/43/33
f 42/51/40 47/52/41 41/45/35
f 38/46/36 48/53/42 42/51/40
f 49/54/43 44/55/44 43/47/37
f 51/56/45 43/57/37 45/48/38
f 52/58/46 45/48/38 46/50/39
f 47/52/41 52/58/46 46/50/39
f 48/53/42 53/59/47 47/52/41
f 44/55/44 54/60/48 48/53/42
f 49/54/43 56/61/49 50/62/50
f 51/56/45 55/63/51 49/64/43
f 52/58/46 57/65/52 51/56/45
f 59/66/53 52/58/46 53/59/47
f 60/67/54 53/59/47 54/60/48
f 56/61/49 54/60/48 50/62/50
f 61/68/55 56/61/49 55/69/51
f 63/70/56 55/63/51 57/65/52
f 58/71/57 63/70/56 57/65/52
f 59/66/53 64/72/58 58/71/57
f 60/67/54 65/73/59 59/66/53
f 62/74/60 60/67/54 56/61/49
f 67/75/61 62/74/60 61/68/55
f 69/76/62 61/77/55 63/70/56
f 70/78/63 63/70/56 64/72/58
f 65/73/59 70/78/63 64/72/58
f 66/79/64 71/80/65 65/73/59
f 62/74/60 72/81/66 66/79/64
f 67/75/61 74/82/67 68/83/68
f 75/84/69 67/85/61 69/76/62
f 76/86/70 69/76/62 70/78/63
f 77/87/71 70/78/63 71/80/65
f 72/81/66 77/87/71 71/80/65
f 68/83/68 78/88/72 72/81/66
f 73/89/73 80/90/74 74/82/67
f 81/91/75 73/92/73 75/84/69
f 82/93/76 75/84/69 76/86/70
f 83/94/77 76/86/70 77/87/71
f 78/88/72 83/94/77 77/87/71
f 74/82/67 84/95/78 78/88/72
f 79/96/79 86/97/80 80/90/74
f 87/98/81 79/99/79 81/91/75
f 88/100/82 81/91/75 82/93/76
f 89/101/83 82/93/76 83/94/77
f 84/95/78 89/101/83 83/94/77
f 80/90/74 90/102/84 84/95/78
f 91/103/85 86/97/80 85/104/86
f 87/98/81 91/105/85 85/106/86
f 88/100/82 93/107/87 87/98/81
f 89/101/83 94/108/88 88/100/82
f 96/109/89 89/101/83 90/102/84
f 92/110/90 90/102/84 86/97/80
f 97/111/91 92/110/90 91/103/85
f 93/107/87 97/112/91 91/105/85
f 94/108/88 99/113/92 93/107/87
f 95/114/93 100/115/94 94/108/88
f 102/116/95 95/114/93 96/109/89
f 98/117/96 96/109/89 92/110/90
f 7/7/2 8/19/6 9/8/3
f 11/10/5 12/21/14 8/11/6
f 14/13/7 12/21/14 11/10/5
f 16/15/9 14/13/7 13/14/8
f 18/17/11 16/15/9 15/16/10
f 10/9/4 9/8/3 18/17/11
f 8/19/6 19/26/15 20/20/13
f 12/21/14 21/28/20 19/22/15
f 22/23/16 21/28/20 12/21/14
f 23/24/17 22/23/16 14/13/7
f 24/25/18 23/24/17 16/15/9
f 9/8/3 20/20/13 24/25/18
f 19/26/15 25/33/21 26/27/19
f 21/28/20 27/30/22 25/29/21
f 22/23/16 28/36/27 27/30/22
f 29/31/23 28/36/27 22/23/16
f 30/32/24 29/31/23 23/24/17
f 26/27/19 30/32/24 24/25/18
f 25/33/21 31/41/26 32/34/25
f 27/30/22 33/37/28 31/35/26
f 28/36/27 34/44/34 33/37/28
f 35/38/29 34/44/34 28/36/27
f 36/39/30 35/38/29 29/31/23
f 32/34/25 36/39/30 30/32/24
f 37/40/31 38/46/36 32/34/25
f 39/42/32 37/49/31 31/35/26
f 40/43/33 39/42/32 33/37/28
f 35/38/29 41/45/35 40/43/33
f 36/39/30 42/51/40 41/45/35
f 38/46/36 42/51/40 36/39/30
f 43/47/37 44/55/44 38/46/36
f 45/48/38 43/57/37 37/49/31
f 46/50/39 45/48/38 39/42/32
f 41/45/35 47/52/41 46/50/39
f 42/51/40 48/53/42 47/52/41
f 38/46/36 44/55/44 48/53/42
f 49/54/43 50/62/50 44/55/44
f 51/56/45 49/64/43 43/57/37
f 52/58/46 51/56/45 45/48/38
f 47/52/41 53/59/47 52/58/46
f 48/53/42 54/60/48 53/59/47
f 44/55/44 50/62/50 54/60/48
f 49/54/43 55/69/51 56/61/49
f 51/56/45 57/65/52 55/63/51
f 52/58/46 58/71/57 57/65/52
f 59/66/53 58/71/57 52/58/46
f 60/67/54 59/66/53 53/59/47
f 56/61/49 60/67/54 54/60/48
f 61/68/55 62/74/60 56/61/49
f 63/70/56 61/77/55 55/63/51
f 58/71/57 64/72/58 63/70/56
f 59/66/53 65/73/59 64/72/58
f 60/67/54 66/79/64 65/73/59
f 62/74/60 66/79/64 60/67/54
f 67/75/61 68/83/68 62/74/60
f 69/76/62 67/85/61 61/77/55
f 70/78/63 69/76/62 63/70/56
f 65/73/59 71/80/65 70/78/63
f 66/79/64 72/81/66 71/80/65
f 62/74/60 68/83/68 72/81/66
f 67/75/61 73/89/73 74/82/67
f 75/84/69 73/92/73 67/85/61
f 76/86/70 75/84/69 69/76/62
f 77/87/71 76/86/70 70/78/63
f 72/81/66 78/88/72 77/87/71
f 68/83/68 74/82/67 78/88/72
f 73/89/73 79/96/79 80/90/74
f 81/91/75 79/99/79 73/92/73
f 82/93/76 81/91/75 75/84/69
f 83/94/77 82/93/76 76/86/70
f 78/88/72 84/95/78 83/94/77
f 74/82/67 80/90/74 84/95/78
f 79/96/79 85/104/86 86/97/80
f 87/98/81 85/106/86 79/99/79
f 88/100/82 87/98/81 81/91/75
f 89/101/83 88/100/82 82/93/76
f 84/95/78 90/102/84 89/101/83
f 80/90/74 86/97/80 90/102/84
f 91/103/85 92/110/90 86/97/80
f 87/98/81 93/107/87 91/105/85
f 88/100/82 94/108/88 93/107/87
f 89/101/83 95/114/93 94/108/88
f 96/109/89 95/114/93 89/101/83
f 92/110/90 96/109/89 90/102/84
f 97/111/91 98/117/96 92/110/90
f 93/107/87 99/113/92 97/112/91
f 94/108/88 100/115/94 99/113/92
f 95/114/93 101/118/97 100/115/94
f 102/116/95 101/118/97 95/114/93
f 98/117/96 102/116/95 96/109/89
